<svg width="32" height="34" viewBox="0 0 32 34" fill="none" xmlns="http://www.w3.org/2000/svg">
<path d="M13.5 10.3333C13.5 4.51666 8.00002 0.766656 7.76669 0.616656C7.49108 0.430363 7.16602 0.330811 6.83335 0.330811C6.50069 0.330811 6.17563 0.430363 5.90002 0.616656C5.66669 0.783323 0.166687 4.58332 0.166687 10.3333C0.166687 12.1014 0.869066 13.7971 2.11931 15.0474C3.36955 16.2976 5.06524 17 6.83335 17C8.60146 17 10.2972 16.2976 11.5474 15.0474C12.7976 13.7971 13.5 12.1014 13.5 10.3333ZM6.83335 13.6667C5.9493 13.6667 5.10145 13.3155 4.47633 12.6903C3.85121 12.0652 3.50002 11.2174 3.50002 10.3333C3.61424 9.12985 3.96798 7.96137 4.54043 6.89662C5.11288 5.83187 5.89247 4.89235 6.83335 4.13332C7.77776 4.88912 8.5598 5.82785 9.13259 6.89323C9.70538 7.95861 10.0571 9.1287 10.1667 10.3333C10.1667 11.2174 9.8155 12.0652 9.19038 12.6903C8.56526 13.3155 7.71741 13.6667 6.83335 13.6667ZM26.1 0.616656C25.8244 0.430363 25.4994 0.330811 25.1667 0.330811C24.834 0.330811 24.509 0.430363 24.2334 0.616656C24 0.783323 18.5 4.58332 18.5 10.3333C18.5 12.1014 19.2024 13.7971 20.4526 15.0474C21.7029 16.2976 23.3986 17 25.1667 17C26.9348 17 28.6305 16.2976 29.8807 15.0474C31.131 13.7971 31.8334 12.1014 31.8334 10.3333C31.8334 4.51666 26.3334 0.766656 26.1 0.616656ZM25.1667 13.6667C24.2826 13.6667 23.4348 13.3155 22.8097 12.6903C22.1845 12.0652 21.8334 11.2174 21.8334 10.3333C21.9476 9.12985 22.3013 7.96137 22.8738 6.89662C23.4462 5.83187 24.2258 4.89235 25.1667 4.13332C26.1111 4.88912 26.8931 5.82785 27.4659 6.89323C28.0387 7.95861 28.3904 9.1287 28.5 10.3333C28.5 11.2174 28.1488 12.0652 27.5237 12.6903C26.8986 13.3155 26.0507 13.6667 25.1667 13.6667ZM17.7667 17.2833C17.4911 17.097 17.166 16.9975 16.8334 16.9975C16.5007 16.9975 16.1756 17.097 15.9 17.2833C15.6667 17.45 10.1667 21.25 10.1667 27C10.1667 28.7681 10.8691 30.4638 12.1193 31.714C13.3696 32.9643 15.0652 33.6667 16.8334 33.6667C18.6015 33.6667 20.2972 32.9643 21.5474 31.714C22.7976 30.4638 23.5 28.7681 23.5 27C23.5 21.1833 18 17.4333 17.7667 17.2833ZM16.8334 30.3333C15.9493 30.3333 15.1015 29.9821 14.4763 29.357C13.8512 28.7319 13.5 27.884 13.5 27C13.6142 25.7965 13.968 24.628 14.5404 23.5633C15.1129 22.4985 15.8925 21.559 16.8334 20.8C17.7778 21.5558 18.5598 22.4945 19.1326 23.5599C19.7054 24.6253 20.0571 25.7954 20.1667 27C20.1667 27.884 19.8155 28.7319 19.1904 29.357C18.5653 29.9821 17.7174 30.3333 16.8334 30.3333Z" fill="black"/>
</svg>
